PathFileType	4	(X/Y/Z)	Walk4.trc
DataRate	CameraRate	NumFrames	NumMarkers	Units	OrigDataRate	OrigDataStartFrame	OrigNumFrames
200.000000	200.000000	4	59	mm	200.000000	415	543
Frame#	Times		RFHD		CLAV		RBack		LASI		RACR1		RUA1		RElbow		RElbowM		RFA1		RWRR		RWRU		LACR1		LUA1		LFA1		LWRR		LWRU		RTH1		RTH3		RTH2		RTB3		RTB2		LTH1		LTH2		LTB2		RMT1		RCAR		LFHD		C7		RTB1		RTB4		RPSI		T10		LTH4		LBHD		LTH3		RLFC		STRN		RBHD		LLFC		LElbowM		LCAR		LTB4		RTH4		LTB1		LElbow		LPSI		LToe		LMMAL		RMT5		LCAL		RASI		LMT1		LMT5		LTB3		LLMAL		RToe		RCAL		RMMAL		RLMAL
			X1	Y1	Z1	X2	Y2	Z2	X3	Y3	Z3	X4	Y4	Z4	X5	Y5	Z5	X6	Y6	Z6	X7	Y7	Z7	X8	Y8	Z8	X9	Y9	Z9	X10	Y10	Z10	X11	Y11	Z11	X12	Y12	Z12	X13	Y13	Z13	X14	Y14	Z14	X15	Y15	Z15	X16	Y16	Z16	X17	Y17	Z17	X18	Y18	Z18	X19	Y19	Z19	X20	Y20	Z20	X21	Y21	Z21	X22	Y22	Z22	X23	Y23	Z23	X24	Y24	Z24	X25	Y25	Z25	X26	Y26	Z26	X27	Y27	Z27	X28	Y28	Z28	X29	Y29	Z29	X30	Y30	Z30	X31	Y31	Z31	X32	Y32	Z32	X33	Y33	Z33	X34	Y34	Z34	X35	Y35	Z35	X36	Y36	Z36	X37	Y37	Z37	X38	Y38	Z38	X39	Y39	Z39	X40	Y40	Z40	X41	Y41	Z41	X42	Y42	Z42	X43	Y43	Z43	X44	Y44	Z44	X45	Y45	Z45	X46	Y46	Z46	X47	Y47	Z47	X48	Y48	Z48	X49	Y49	Z49	X50	Y50	Z50	X51	Y51	Z51	X52	Y52	Z52	X53	Y53	Z53	X54	Y54	Z54	X55	Y55	Z55	X56	Y56	Z56	X57	Y57	Z57	X58	Y58	Z58	X59	Y59	Z59

415	2.075	290.29	1422.8	41.979	262.47	1186.9	-24.337	78.673	1152.4	102.04	217.58	821.28	-193.45	198.98	1217.8	157.83	214.63	1076.1	236.9	203.07	951.97	273.22	141.81	919.95	210.11	263.54	835.34	270.16	273.98	735.65	232.07	251.87	737.58	301.11	172.23	1218.7	-206.15	166.25	1059.2	-281.85	198.91	859.67	-328.3	259.2	764.68	-301.55	216.45	749.94	-346.34	192.65	641.94	182.55	200.74	475.91	132.77	251.44	567.61	140.76	203.15	120.19	22.187	181.7	201.79	87.117	179.68	660.88	-242.35	252.38	600.69	-203.57	155.27	255.89	-158.9	261.5	29.592	-15.204	294.29	680.34	282.35	298.65	1435.1	-53.456	123.61	1273.7	-16.38	230.54	288.07	47.182	213.76	203.35	34.767	-10.18	851.37	44.107	32.879	1076.6	-4.5627	203.3	578.76	-229.61	168.75	1362.6	-83.443	226.19	496.73	-207.92	186.95	390.51	104.41	311.86	1080.4	-22.657	158.98	1354.3	48.73	267.28	403.18	-181.82	99.635	917.56	-231.47	266.72	710.89	-342.89	177.81	242.46	-102.94	194.47	558.3	159.78	240.37	303.55	-115.13	122.51	943.7	-301.69	-25.538	848.29	-59.726	147.42	36.882	-97.042	67.932	153.46	-41.432	236.62	22.753	78.642	-3.6888	171.32	-66.103	249.74	840.29	139.13	114.94	55.779	-64.294	65.396	70.545	-136.42	123.13	180.72	-93.904	31.533	156.19	-115.6	317.17	32.514	18.301	94.502	33.211	10.473	162.36	69.098	-26.191	152.27	58.833	56.547
416	2.08	295.23	1423.2	42.039	267.6	1187.3	-24.291	83.878	1152.9	102.28	222.76	822.1	-193.36	204.11	1218.4	157.9	219.85	1076.9	237.16	208.64	952.71	273.61	147.34	920.53	210.62	269.6	836.33	270.3	280.51	736.81	232.12	258.45	738.52	301.17	176.99	1219	-205.98	170.43	1059.6	-281.85	201.83	859.32	-328.52	261.07	763.53	-302.05	218.02	749.42	-346.77	196.62	641.88	182.77	203.35	475.87	132.73	254.79	567.17	140.88	203.56	119.97	22.154	182.58	201.7	87.12	185.24	661.54	-242.08	258.65	602.1	-203.36	166.67	255.08	-158.08	261.54	29.56	-15.236	301.43	681.75	282.36	303.61	1435.6	-53.404	128.69	1274	-16.262	231.9	287.69	47.251	214.67	203.08	34.796	-5.0937	851.63	44.346	38.095	1076.9	-4.13	209.64	579.67	-229.2	173.79	1362.8	-83.409	233.37	497.89	-207.34	188.89	390.43	104.44	316.94	1080.9	-23.017	163.98	1354.6	48.766	275.39	404.81	-181.06	103.57	918.17	-231.2	267.74	709.49	-343.34	189.48	242.24	-102.1	197.73	558.22	159.9	250.59	304.76	-114.29	126.53	944.12	-301.39	-20.399	848.9	-59.403	165.33	36.774	-95.833	81.766	150.62	-40.599	236.62	22.749	78.622	9.59	166.23	-65.368	254.22	840.61	139.8	132.08	54.874	-63.271	82.053	67.59	-135.42	136.34	179.19	-93.043	45.439	152.22	-114.86	317.3	32.378	18.343	94.563	33.358	10.47	162.5	69.096	-26.21	152.37	58.836	56.504
417	2.085	300.14	1423.6	42.078	272.73	1187.6	-24.253	89.091	1153.3	102.53	227.96	822.87	-193.25	209.26	1219	157.95	225.02	1077.6	237.44	214.17	953.4	274.01	152.85	921.07	211.13	275.62	837.28	270.47	287.02	737.95	232.18	264.99	739.42	301.23	181.77	1219.2	-205.82	174.65	1060	-281.84	204.75	858.96	-328.79	262.96	762.37	-302.63	219.61	748.9	-347.27	200.68	641.81	182.95	206.09	475.84	132.65	258.23	566.74	140.94	203.96	119.76	22.116	183.46	201.62	87.124	190.79	662.14	-241.85	264.88	603.43	-203.16	178.11	254.17	-157.27	261.58	29.527	-15.268	308.54	683.13	282.38	308.54	1435.9	-53.376	133.78	1274.2	-16.154	233.24	287.3	47.317	215.56	202.8	34.822	-0.0019018	851.87	44.6	43.304	1077.1	-3.6932	215.95	580.51	-228.83	178.83	1363	-83.398	240.48	498.99	-206.78	190.81	390.34	104.47	322.02	1081.4	-23.394	168.97	1354.8	48.777	283.36	406.37	-180.29	107.54	918.71	-230.98	268.75	708.1	-343.88	201.19	241.95	-101.27	201.1	558.13	159.99	260.74	305.93	-113.45	130.58	944.51	-301.13	-15.275	849.45	-59.077	183.43	36.71	-94.774	95.818	147.61	-39.826	236.63	22.743	78.602	23.134	160.91	-64.67	258.76	840.85	140.44	149.46	53.941	-62.377	98.961	64.591	-134.54	149.69	177.55	-92.212	59.566	148.06	-114.16	317.42	32.245	18.387	94.628	33.508	10.474	162.65	69.095	-26.227	152.45	58.838	56.455
418	2.09	305.04	1424	42.096	277.85	1187.9	-24.222	94.309	1153.7	102.78	233.19	823.6	-193.14	214.41	1219.5	158	230.16	1078.2	237.73	219.66	954.05	274.43	158.35	921.57	211.62	281.61	838.19	270.67	293.51	739.05	232.24	271.49	740.26	301.29	186.58	1219.4	-205.67	178.92	1060.3	-281.83	207.68	858.57	-329.11	264.86	761.21	-303.31	221.2	748.38	-347.84	204.83	641.72	183.09	208.96	475.79	132.53	261.76	566.3	140.93	204.37	119.56	22.076	184.33	201.53	87.129	196.35	662.7	-241.65	271.07	604.68	-202.98	189.59	253.17	-156.5	261.63	29.493	-15.298	315.62	684.49	282.4	313.46	1436.3	-53.368	138.86	1274.4	-16.057	234.57	286.92	47.381	216.45	202.52	34.847	5.0934	852.08	44.863	48.504	1077.4	-3.2546	222.22	581.3	-228.48	183.85	1363.1	-83.409	247.51	500.02	-206.24	192.71	390.24	104.49	327.09	1081.8	-23.782	173.95	1355	48.766	291.17	407.85	-179.49	111.55	919.17	-230.79	269.77	706.73	-344.51	212.94	241.59	-100.47	204.58	558.04	160.04	270.8	307.06	-112.6	134.66	944.84	-300.9	-10.165	849.96	-58.754	201.71	36.712	-93.899	110.09	144.46	-39.128	236.63	22.738	78.581	36.95	155.38	-64.014	263.33	841.01	141.05	167.05	53.004	-61.641	116.1	61.589	-133.79	163.19	175.82	-91.417	73.91	143.76	-113.51	317.54	32.119	18.435	94.698	33.663	10.484	162.81	69.094	-26.242	152.53	58.841	56.401
